<svg width="122" height="42" viewBox="0 0 122 42" fill="none" xmlns="http://www.w3.org/2000/svg">
<path d="M111.968 11.5036V19.7787L119.398 15.3986C119.484 15.3475 119.597 15.367 119.653 15.4502C119.832 15.7121 119.954 16.0153 120.003 16.3421L120.163 17.4151C120.291 18.2792 119.883 19.135 119.13 19.5785L112.365 23.6134C112.119 23.7602 111.968 24.0256 111.968 24.3121V29.2303C111.968 29.6585 111.621 30.0056 111.193 30.0056H108.764C108.336 30.0056 107.989 29.6585 107.989 29.2303V11.5036C107.989 11.0754 108.336 10.7283 108.764 10.7283H111.193C111.621 10.7283 111.968 11.0754 111.968 11.5036Z" fill="white"/>
<path d="M44.0086 25.1889C43.9394 24.7562 44.296 24.3909 44.7342 24.3909H47.1537C47.5355 24.3909 47.8483 24.676 47.9986 25.0269C48.5393 26.289 50.0428 27.0211 51.9732 27.0211C54.1673 27.0211 55.6664 25.9581 55.6664 24.5136C55.6664 23.2189 54.7397 22.483 52.273 21.9788L50.2016 21.57C46.2768 20.7932 44.3553 18.9126 44.3553 15.9826C44.3553 12.3849 47.4897 10 51.8642 10C56.114 10 58.9051 12.0538 59.3521 15.222C59.4127 15.6517 59.0578 16.0098 58.624 16.0098H56.2449C55.8411 16.0098 55.5179 15.693 55.3853 15.3116C54.9494 14.0576 53.6295 13.3252 51.8642 13.3252C49.8337 13.3252 48.4709 14.2791 48.4709 15.7237C48.4709 16.9365 49.4248 17.6861 51.7416 18.1494L53.8266 18.5719C57.9831 19.4032 59.7956 21.0794 59.7956 24.0638C59.7956 27.9069 56.7838 30.3462 51.8642 30.3462C47.5229 30.3462 44.5256 28.4179 44.0086 25.1889Z" fill="white"/>
<path fill-rule="evenodd" clip-rule="evenodd" d="M67.1124 17.9159C67.9077 16.2159 69.523 15.1649 71.6234 15.1649C75.3301 15.1649 77.606 17.9859 77.606 22.7011C77.606 27.4026 75.3438 30.2372 71.6915 30.2372C69.578 30.2372 67.9493 29.2135 67.1671 27.5813C67.1588 27.5638 67.1411 27.5526 67.1217 27.5526C67.0941 27.5526 67.0717 27.575 67.0717 27.6026V33.2247C67.0717 33.6529 66.7246 34 66.2964 34H63.8677C63.4395 34 63.0924 33.6529 63.0924 33.2247V16.1719C63.0924 15.7437 63.4395 15.3966 63.8677 15.3966H66.2419C66.6701 15.3966 67.0172 15.7437 67.0172 16.1719V17.8951C67.0172 17.9227 67.0395 17.945 67.067 17.945C67.0865 17.945 67.1042 17.9336 67.1124 17.9159ZM67.0581 22.7011C67.0581 25.3449 68.3391 27.0347 70.2879 27.0347C72.2775 27.0347 73.5313 25.3585 73.5313 22.7011C73.5313 20.0573 72.2775 18.3538 70.2879 18.3538C68.3391 18.3538 67.0581 20.0845 67.0581 22.7011Z" fill="white"/>
<path fill-rule="evenodd" clip-rule="evenodd" d="M85.1138 30.2372C86.9292 30.2372 88.7312 29.3348 89.5556 27.7978C89.5645 27.7811 89.5819 27.7706 89.6008 27.7706C89.629 27.7706 89.6518 27.7934 89.6518 27.8216V29.2303C89.6518 29.6585 89.9989 30.0056 90.4271 30.0056H92.7196C93.1478 30.0056 93.4949 29.6585 93.4949 29.2303V19.9619C93.4949 17.0183 91.0555 15.0832 87.3078 15.0832C83.8181 15.0832 81.5139 16.6676 80.9846 19.0571C80.8885 19.4909 81.2486 19.8665 81.6929 19.8665H83.8642C84.2402 19.8665 84.5467 19.5858 84.7227 19.2536C85.1112 18.5203 85.9482 18.054 87.1307 18.054C88.6297 18.054 89.5837 18.8444 89.5837 20.2072V20.4441C89.5837 20.8544 89.2639 21.1937 88.8543 21.218L85.9042 21.3928C82.2656 21.6109 80.2214 23.1508 80.2214 25.8082C80.2214 28.4384 82.3337 30.2372 85.1138 30.2372ZM86.422 27.3618C85.0729 27.3618 84.1735 26.6804 84.1735 25.5902C84.1735 24.5544 85.0184 23.8867 86.5038 23.7777L89.1721 23.6124C89.3952 23.5986 89.5837 23.7758 89.5837 23.9993V24.6498C89.5837 26.2307 88.1528 27.3618 86.422 27.3618Z" fill="white"/>
<path d="M97.9622 30.0056C97.534 30.0056 97.1869 29.6585 97.1869 29.2303V16.1719C97.1869 15.7437 97.534 15.3966 97.9622 15.3966H100.255C100.683 15.3966 101.03 15.7437 101.03 16.1719V17.9803C101.03 18.0059 101.051 18.0267 101.076 18.0267C101.097 18.0267 101.116 18.0126 101.121 17.9925C101.645 16.161 102.88 15.1649 104.587 15.1649C104.79 15.1649 104.981 15.1781 105.153 15.1997C105.493 15.2424 105.718 15.5493 105.718 15.8916V17.6543C105.718 18.2075 105.134 18.6272 104.581 18.5946C104.48 18.5886 104.377 18.5855 104.273 18.5855C102.311 18.5855 101.166 19.7847 101.166 21.8425V29.2303C101.166 29.6585 100.819 30.0056 100.391 30.0056H97.9622Z" fill="white"/>
<path d="M113.887 25.3173C113.75 25.1239 113.807 24.8556 114.01 24.7341L116.871 23.0218L120.911 28.7853C121.271 29.299 120.904 30.0055 120.276 30.0055H117.59C117.338 30.0055 117.101 29.8828 116.956 29.6766L113.887 25.3173Z" fill="white"/>
<path d="M13.613 20.8735L13.613 10.6882C13.613 8.08319 16.293 6.30081 18.7592 7.26559L33.4218 13.0017L28.8868 14.8039L17.9952 10.7769C17.3812 10.5499 16.7253 10.9951 16.7253 11.6389L16.7253 19.6367L13.613 20.8735Z" fill="#F51592"/>
<path d="M35 15.7998C35 16.5505 34.5358 17.2261 33.8266 17.5077L28.3863 19.6673V19.6756L12.5528 26.3594L11.718 26.6753L24.0041 31.2179C24.6181 31.4449 25.274 30.9997 25.274 30.3559V22.3806L28.3863 21.1438V31.3118C28.3863 33.9154 25.709 35.6977 23.2432 34.7356L8.1838 28.8595C7.46909 28.5806 7 27.9023 7 27.1476L7 26.195C7 25.4443 7.4642 24.7687 8.17344 24.4872L34.7402 13.9326C34.9068 14.2101 35 14.5313 35 14.8677V15.7998Z" fill="url(#paint0_radial_60142_3144)"/>
<defs>
<radialGradient id="paint0_radial_60142_3144" cx="0" cy="0" r="1" gradientTransform="matrix(-34.0414 -34.451 45.7877 -13.1663 45.2614 51.2672)" gradientUnits="userSpaceOnUse">
<stop offset="0.580974" stop-color="#7E49DD"/>
<stop offset="1" stop-color="#4183D7"/>
</radialGradient>
</defs>
</svg>
