<svg width="122" height="42" viewBox="0 0 122 42" fill="none" xmlns="http://www.w3.org/2000/svg">
<path d="M111.967 11.5036V19.7787L119.397 15.3986C119.483 15.3475 119.596 15.367 119.652 15.4502C119.831 15.7121 119.953 16.0153 120.002 16.3421L120.162 17.4151C120.29 18.2792 119.882 19.135 119.129 19.5785L112.364 23.6134C112.118 23.7602 111.967 24.0256 111.967 24.3121V29.2303C111.967 29.6585 111.62 30.0056 111.192 30.0056H108.763C108.335 30.0056 107.988 29.6585 107.988 29.2303V11.5036C107.988 11.0754 108.335 10.7283 108.763 10.7283H111.192C111.62 10.7283 111.967 11.0754 111.967 11.5036Z" fill="#333333"/>
<path d="M44.0086 25.1889C43.9394 24.7562 44.296 24.3909 44.7342 24.3909H47.1537C47.5355 24.3909 47.8483 24.676 47.9986 25.0269C48.5393 26.289 50.0428 27.0211 51.9732 27.0211C54.1673 27.0211 55.6664 25.9581 55.6664 24.5136C55.6664 23.2189 54.7397 22.483 52.273 21.9788L50.2016 21.57C46.2768 20.7932 44.3553 18.9126 44.3553 15.9826C44.3553 12.3849 47.4897 10 51.8642 10C56.114 10 58.9051 12.0538 59.3521 15.222C59.4127 15.6517 59.0578 16.0098 58.624 16.0098H56.2449C55.8411 16.0098 55.5179 15.693 55.3853 15.3116C54.9494 14.0576 53.6295 13.3252 51.8642 13.3252C49.8337 13.3252 48.4709 14.2791 48.4709 15.7237C48.4709 16.9365 49.4248 17.6861 51.7416 18.1494L53.8266 18.5719C57.9831 19.4032 59.7956 21.0794 59.7956 24.0638C59.7956 27.9069 56.7838 30.3462 51.8642 30.3462C47.5229 30.3462 44.5256 28.4179 44.0086 25.1889Z" fill="#333333"/>
<path fill-rule="evenodd" clip-rule="evenodd" d="M67.1118 17.9159C67.9071 16.2159 69.5224 15.1649 71.6228 15.1649C75.3295 15.1649 77.6054 17.9859 77.6054 22.7011C77.6054 27.4026 75.3432 30.2372 71.6909 30.2372C69.5774 30.2372 67.9487 29.2135 67.1665 27.5813C67.1582 27.5638 67.1405 27.5526 67.1211 27.5526C67.0935 27.5526 67.0711 27.575 67.0711 27.6026V33.2247C67.0711 33.6529 66.724 34 66.2958 34H63.8671C63.4389 34 63.0918 33.6529 63.0918 33.2247V16.1719C63.0918 15.7437 63.4389 15.3966 63.8671 15.3966H66.2413C66.6695 15.3966 67.0166 15.7437 67.0166 16.1719V17.8951C67.0166 17.9227 67.0389 17.945 67.0664 17.945C67.0859 17.945 67.1036 17.9336 67.1118 17.9159ZM67.0575 22.7011C67.0575 25.3449 68.3385 27.0347 70.2873 27.0347C72.2769 27.0347 73.5307 25.3585 73.5307 22.7011C73.5307 20.0573 72.2769 18.3538 70.2873 18.3538C68.3385 18.3538 67.0575 20.0845 67.0575 22.7011Z" fill="#333333"/>
<path fill-rule="evenodd" clip-rule="evenodd" d="M85.1131 30.2373C86.9285 30.2373 88.7305 29.3349 89.5549 27.7979C89.5638 27.7812 89.5812 27.7707 89.6001 27.7707C89.6283 27.7707 89.6511 27.7935 89.6511 27.8217V29.2304C89.6511 29.6586 89.9982 30.0057 90.4264 30.0057H92.7189C93.1471 30.0057 93.4942 29.6586 93.4942 29.2304V19.962C93.4942 17.0184 91.0548 15.0833 87.3071 15.0833C83.8174 15.0833 81.5132 16.6677 80.9839 19.0572C80.8878 19.491 81.2479 19.8666 81.6922 19.8666H83.8635C84.2395 19.8666 84.546 19.5859 84.722 19.2537C85.1105 18.5204 85.9475 18.0541 87.13 18.0541C88.629 18.0541 89.583 18.8445 89.583 20.2073V20.4442C89.583 20.8545 89.2632 21.1938 88.8536 21.2181L85.9035 21.3929C82.2649 21.611 80.2207 23.1509 80.2207 25.8083C80.2207 28.4385 82.333 30.2373 85.1131 30.2373ZM86.4213 27.3619C85.0722 27.3619 84.1728 26.6805 84.1728 25.5903C84.1728 24.5545 85.0177 23.8868 86.5031 23.7778L89.1714 23.6125C89.3945 23.5987 89.583 23.7759 89.583 23.9994V24.6499C89.583 26.2308 88.1521 27.3619 86.4213 27.3619Z" fill="#333333"/>
<path d="M97.9628 30.0056C97.5346 30.0056 97.1875 29.6585 97.1875 29.2303V16.1719C97.1875 15.7437 97.5346 15.3966 97.9628 15.3966H100.256C100.684 15.3966 101.031 15.7437 101.031 16.1719V17.9803C101.031 18.0059 101.052 18.0267 101.077 18.0267C101.098 18.0267 101.117 18.0126 101.122 17.9925C101.646 16.161 102.881 15.1649 104.588 15.1649C104.791 15.1649 104.982 15.1781 105.154 15.1997C105.494 15.2424 105.719 15.5493 105.719 15.8916V17.6543C105.719 18.2075 105.135 18.6272 104.582 18.5946C104.481 18.5886 104.378 18.5855 104.274 18.5855C102.312 18.5855 101.167 19.7847 101.167 21.8425V29.2303C101.167 29.6585 100.82 30.0056 100.392 30.0056H97.9628Z" fill="#333333"/>
<path d="M113.887 25.3174C113.75 25.124 113.807 24.8557 114.01 24.7342L116.871 23.0219L120.911 28.7854C121.271 29.2991 120.904 30.0056 120.276 30.0056H117.59C117.338 30.0056 117.101 29.8829 116.956 29.6767L113.887 25.3174Z" fill="#333333"/>
<path d="M13.6133 20.8735V10.6882C13.6133 8.08324 16.2933 6.30086 18.7595 7.26564L33.4221 13.0017L28.8871 14.8039L17.9955 10.7769C17.3815 10.5499 16.7256 10.9951 16.7256 11.6389V19.6367L13.6133 20.8735Z" fill="#F51592"/>
<path d="M35 15.7998C35 16.5505 34.5358 17.2261 33.8266 17.5077L28.3863 19.6673V19.6756L12.5528 26.3594L11.718 26.6753L24.0041 31.2179C24.6181 31.4449 25.274 30.9997 25.274 30.3559V22.3806L28.3863 21.1438V31.3118C28.3863 33.9154 25.709 35.6977 23.2432 34.7356L8.1838 28.8595C7.46909 28.5806 7 27.9023 7 27.1476V26.195C7 25.4443 7.4642 24.7687 8.17344 24.4872L34.7402 13.9326C34.9068 14.2101 35 14.5313 35 14.8677V15.7998Z" fill="url(#paint0_radial_3406_416)"/>
<defs>
<radialGradient id="paint0_radial_3406_416" cx="0" cy="0" r="1" gradientTransform="matrix(-34.0414 -34.451 45.7877 -13.1663 45.2614 51.2672)" gradientUnits="userSpaceOnUse">
<stop offset="0.580974" stop-color="#7E49DD"/>
<stop offset="1" stop-color="#4183D7"/>
</radialGradient>
</defs>
</svg>
